<?xml version="1.0"?>
<svg xmlns="http://www.w3.org/2000/svg" height="512px" viewBox="-13 0 512 512" width="512px" class=""><g><path d="m438.09375 415.015625h-9.613281c-4.953125-62.1875-57.136719-111.273437-120.574219-111.273437h-106.929688c1.046876 24.007812-7.355468 47.652343-23.511718 65.632812-17.457032 19.425781-42.441406 30.5625-68.554688 30.5625h-16.246094c-11.234374 0-22.257812-2.066406-32.5625-5.960938 4.488282 13.183594 11.113282 25.640626 19.65625 36.734376l5.140626 6.675781v23.550781c0 11.570312-9.410157 20.980469-20.980469 20.980469h-44.410157v30.03125l409.359376.050781v-.277344h9.226562c26.664062 0 48.355469-21.691406 48.355469-48.355468 0-26.660157-21.691407-48.351563-48.355469-48.351563zm-98.253906-17.820313h-15.972656c-27.019532 0-49.003907 21.988282-49.003907 49.007813v35.300781h-30.035156v-35.300781c0-43.582031 35.457031-79.039063 79.039063-79.039063h15.972656zm0 0" data-original="#000000" class="active-path" data-old_color="#000000" fill="#962424"/><path d="m37.984375 225.238281-8.125 75.808594c-1.90625 17.792969 3.863281 35.632813 15.824219 48.945313 9.933594 11.054687 23.429687 18.175781 37.972656 20.28125v-58.417969h30.03125v58.878906c16.136719-1.226563 31.3125-8.621094 42.207031-20.742187 11.960938-13.3125 17.726563-31.152344 15.820313-48.945313l-8.121094-75.808594c-1.050781-9.800781-4.296875-18.863281-9.207031-26.734375 5.898437-6.847656 12.191406-15.03125 18.152343-24.433594 8-12.628906 15.394532-27.453124 20.386719-44.203124 16.210938-54.375.640625-107.160157-.03125-109.378907l-6.1875-20.488281-16.214843 13.140625c-1.757813 1.425781-43.21875 35.507813-59.425782 89.882813-3.75 12.570312-5.789062 25.0625-6.710937 36.863281-.808594 10.339843-.761719 20.144531-.238281 29.007812-1.101563-.054687-2.210938-.089843-3.328126-.089843-1.839843 0-3.652343.085937-5.453124.242187.527343-8.890625.578124-18.707031-.21875-29.050781-.910157-11.84375-2.9375-24.367188-6.664063-36.972656-16.070313-54.375-57.183594-88.457032-58.925781-89.882813l-16.074219-13.140625-6.136719 20.488281c-.664062 2.222657-16.105468 55.003907-.03125 109.382813 5.089844 17.226562 12.667969 32.429687 20.84375 45.320312 6.019532 9.492188 12.363282 17.734375 18.273438 24.605469-4.464844 7.5625-7.425782 16.171875-8.417969 25.441406zm0 0" data-original="#000000" class="active-path" data-old_color="#000000" fill="#962424"/></g> </svg>
